<?xml version="1.0" standalone="no"?>
<!DOCTYPE svg PUBLIC "-//W3C//DTD SVG 20010904//EN"
 "http://www.w3.org/TR/2001/REC-SVG-20010904/DTD/svg10.dtd">
<svg version="1.0" xmlns="http://www.w3.org/2000/svg"
 width="300.000000pt" height="185.000000pt" viewBox="0 0 300.000000 185.000000"
 preserveAspectRatio="xMidYMid meet">

<g transform="translate(0.000000,185.000000) scale(0.100000,-0.100000)"
fill="#000000" stroke="none">
<path d="M1605 1820 c-63 -25 -120 -71 -156 -128 -26 -41 -29 -62 -10 -62 4 0
22 22 39 48 89 138 290 175 418 77 37 -28 54 -32 54 -11 0 18 -84 71 -135 85
-61 17 -154 12 -210 -9z"/>
<path d="M1973 1688 c3 -13 15 -48 26 -78 24 -66 26 -110 7 -174 -21 -69 -62
-122 -128 -167 -54 -37 -58 -42 -58 -79 l0 -40 -49 35 c-35 26 -64 38 -102 42
-41 5 -51 3 -47 -8 2 -7 24 -18 48 -22 24 -5 70 -27 101 -50 69 -48 89 -42 89
27 0 37 4 44 47 76 135 100 177 257 110 404 -26 56 -55 78 -44 34z"/>
<path d="M1632 1637 c-18 -18 -32 -38 -32 -43 0 -6 14 -23 30 -39 l30 -29 -30
-31 c-16 -17 -30 -35 -30 -41 0 -6 16 -25 35 -44 l35 -34 39 32 38 31 29 -30
c15 -16 31 -29 35 -29 16 0 69 53 69 68 0 9 -12 28 -26 43 l-27 28 27 31 c14
17 26 37 26 44 0 17 -28 54 -52 67 -17 9 -25 6 -54 -22 l-34 -33 -33 32 c-18
18 -35 32 -38 32 -3 0 -19 -15 -37 -33z m75 -39 l33 -32 35 34 c34 33 35 33
55 15 l20 -19 -30 -31 c-16 -17 -30 -35 -30 -40 0 -5 14 -23 30 -40 l30 -31
-20 -19 c-20 -18 -21 -18 -55 15 l-35 34 -35 -34 c-34 -33 -35 -33 -55 -15
l-21 19 36 36 35 36 -35 34 c-33 32 -34 35 -18 52 21 24 21 23 60 -14z"/>
<path d="M1197 1630 c-78 -20 -180 -91 -159 -112 6 -6 26 3 55 25 59 45 107
61 183 60 207 -2 348 -220 264 -411 -38 -88 -153 -172 -234 -172 -12 0 -45
-16 -73 -35 -29 -19 -55 -35 -58 -35 -3 0 -5 18 -5 40 0 37 -4 42 -54 74 -120
77 -168 222 -116 357 20 54 18 78 -5 59 -24 -20 -45 -102 -45 -174 0 -57 6
-83 29 -131 28 -61 100 -137 139 -149 17 -6 22 -16 24 -59 4 -67 21 -71 89
-21 30 22 70 40 97 46 105 19 195 89 240 186 53 113 30 255 -57 355 -67 76
-215 121 -314 97z"/>
<path d="M1293 1368 c-61 -61 -62 -62 -82 -44 -20 18 -22 18 -61 -9 -23 -16
-43 -32 -46 -37 -3 -4 12 -30 33 -58 35 -45 41 -49 81 -50 37 0 49 6 92 46 49
46 63 74 37 74 -7 0 -33 -20 -57 -45 -56 -57 -87 -59 -123 -11 -26 33 -26 34
-6 52 19 17 20 17 42 -4 l21 -22 71 70 c71 70 71 71 89 51 15 -17 16 -24 7
-35 -18 -22 -5 -39 20 -25 34 18 34 38 -2 75 -18 19 -38 34 -44 34 -5 0 -38
-28 -72 -62z"/>
<path d="M43 728 c-12 -6 -27 -23 -33 -39 -11 -25 -3 -64 69 -331 88 -327 98
-348 160 -348 54 0 68 24 108 182 21 82 40 148 43 148 3 0 19 -53 34 -117 41
-169 56 -200 101 -209 28 -5 43 -2 63 13 24 18 37 55 109 319 45 164 82 307
83 317 0 25 -53 77 -79 77 -32 0 -68 -20 -78 -44 -6 -11 -25 -83 -44 -158 -18
-76 -36 -132 -40 -125 -3 6 -21 73 -39 147 -35 148 -55 180 -111 180 -53 0
-72 -32 -109 -180 -18 -74 -36 -141 -39 -147 -4 -7 -22 49 -40 125 -40 163
-46 176 -78 191 -29 13 -51 13 -80 -1z"/>
<path d="M1319 711 c-17 -18 -29 -40 -29 -56 0 -16 12 -38 29 -56 24 -24 38
-29 75 -29 l46 0 0 -251 0 -251 30 -30 c27 -26 36 -30 68 -25 71 12 72 18 72
303 l0 254 44 0 c60 0 106 37 106 85 0 25 -8 40 -31 59 -30 26 -32 26 -206 26
l-175 0 -29 -29z"/>
<path d="M2651 664 c-20 -26 -21 -38 -21 -316 l0 -289 25 -24 c29 -30 64 -32
98 -5 21 17 27 31 29 73 l3 52 38 -57 c44 -68 77 -93 109 -83 72 22 75 70 13
170 l-46 73 46 73 c52 85 57 118 19 148 -52 41 -83 27 -137 -58 l-42 -66 -5
153 c-4 137 -7 155 -24 168 -33 23 -82 18 -105 -12z"/>
<path d="M889 473 c-180 -92 -180 -344 0 -435 86 -44 214 -37 269 14 36 34 46
66 27 94 -17 27 -70 33 -107 13 -47 -25 -158 -3 -158 31 0 6 53 10 134 10 120
0 136 2 160 21 70 55 -3 216 -120 265 -57 24 -143 18 -205 -13z m177 -134 c27
-23 13 -29 -66 -29 -44 0 -80 4 -80 9 0 5 15 16 33 25 34 18 89 15 113 -5z"/>
<path d="M1812 474 c-124 -62 -172 -213 -106 -335 51 -94 132 -135 242 -125
84 8 99 8 143 0 31 -5 39 -2 58 21 20 26 21 38 21 220 0 179 -1 194 -21 219
-22 28 -75 36 -96 15 -9 -9 -20 -9 -44 0 -57 20 -140 14 -197 -15z m153 -134
c15 -6 32 -24 41 -46 41 -97 -73 -179 -147 -105 -21 22 -29 39 -29 66 0 27 8
44 29 66 31 30 61 36 106 19z"/>
<path d="M2270 473 c-20 -26 -21 -36 -18 -226 3 -195 3 -199 27 -218 31 -26
64 -24 98 5 28 24 28 26 31 153 4 153 12 168 79 158 37 -5 46 -3 68 19 33 33
33 79 0 111 -29 30 -80 33 -131 9 -31 -15 -35 -15 -49 0 -27 26 -80 20 -105
-11z"/>
</g>
</svg>
